<?xml version="1.0" standalone="no"?>
<!DOCTYPE svg PUBLIC "-//W3C//DTD SVG 20010904//EN"
 "http://www.w3.org/TR/2001/REC-SVG-20010904/DTD/svg10.dtd">
<svg version="1.0" xmlns="http://www.w3.org/2000/svg"
 width="289.000000pt" height="201.000000pt" viewBox="0 0 289.000000 201.000000"
 preserveAspectRatio="xMidYMid meet">

<g transform="translate(0.000000,201.000000) scale(0.100000,-0.100000)"
fill="#000000" stroke="none">
<path d="M1150 1911 c-72 -24 -91 -33 -241 -114 -139 -74 -162 -78 -257 -51
-67 20 -193 15 -240 -10 -86 -44 -93 -114 -32 -310 22 -70 40 -133 40 -140 0
-7 -11 -34 -24 -62 -35 -75 -51 -131 -101 -354 -24 -113 -56 -240 -70 -282
-21 -65 -24 -88 -19 -145 l6 -68 -35 -13 c-19 -7 -40 -19 -46 -26 -7 -8 -17
-66 -23 -130 -16 -156 -17 -155 140 -152 110 3 117 4 131 27 80 122 71 114
131 117 l55 3 18 -45 c10 -24 27 -52 38 -62 26 -23 98 -33 191 -27 l78 6 25
44 c53 89 140 117 295 94 41 -6 111 -16 155 -22 95 -12 119 -26 135 -76 22
-68 44 -83 122 -83 66 0 68 1 73 28 13 63 20 76 50 84 35 10 105 1 105 -14 0
-5 14 -30 32 -54 l31 -44 64 0 c36 0 73 5 83 10 17 9 38 45 54 92 9 29 55 21
113 -19 l53 -37 36 17 c19 9 51 17 72 17 32 0 39 5 52 33 13 27 22 33 64 41
48 9 51 8 79 -24 l29 -32 51 15 c29 9 81 24 117 35 36 10 64 23 63 29 -12 63
-51 173 -69 193 -32 37 -41 58 -54 130 -12 60 -18 70 -72 123 -103 102 -209
131 -308 86 -39 -18 -65 -20 -196 -20 -141 0 -157 2 -250 32 -236 75 -377 179
-455 337 -39 81 -50 166 -40 327 7 103 13 132 41 200 28 68 33 93 34 164 l1
85 -49 30 c-44 28 -59 31 -135 33 -63 2 -101 -2 -141 -16z m-528 -208 c49 -15
58 -21 58 -41 0 -12 9 -40 20 -62 15 -29 20 -59 20 -119 0 -57 4 -84 15 -95
24 -23 18 -35 -22 -41 -21 -4 -45 -9 -54 -11 -13 -3 -18 6 -23 42 -3 25 -28
98 -55 162 -57 138 -66 168 -48 175 20 9 29 8 89 -10z m238 -60 c7 -32 16 -96
20 -143 4 -47 10 -92 14 -100 5 -12 -3 -19 -27 -28 -18 -7 -43 -12 -55 -12
-26 0 -35 28 -57 180 -8 58 -17 115 -21 127 -6 23 7 28 82 32 30 1 32 -1 44
-56z m415 -232 c43 -15 51 -22 58 -52 5 -19 13 -50 19 -70 7 -27 7 -42 -2 -59
-8 -15 -10 -41 -5 -76 6 -50 8 -54 34 -54 20 0 29 -7 38 -30 10 -26 9 -32 -8
-41 -16 -8 -17 -13 -8 -32 6 -12 23 -35 37 -50 20 -21 32 -26 53 -22 21 5 30
1 43 -20 9 -14 15 -34 12 -43 -7 -21 39 -52 77 -52 38 0 86 -29 117 -71 27
-38 28 -38 42 -18 13 20 16 20 38 8 14 -8 32 -20 42 -27 10 -8 67 -17 150 -23
73 -5 144 -11 158 -14 14 -3 61 -1 105 5 171 21 202 23 237 11 73 -24 138
-118 163 -238 10 -46 20 -69 38 -83 25 -20 46 -80 39 -112 -2 -13 -13 -18 -37
-18 -19 0 -46 -5 -61 -10 -24 -10 -30 -8 -50 17 -21 27 -23 27 -68 15 -25 -6
-63 -12 -84 -12 -46 0 -78 -20 -69 -44 9 -22 -35 -50 -67 -42 -14 3 -39 18
-56 33 l-32 27 -76 -13 c-80 -14 -96 -25 -107 -73 -6 -25 -11 -28 -48 -28 -40
0 -77 21 -77 45 0 6 -9 21 -20 33 -18 19 -28 21 -113 17 -50 -2 -95 -4 -99 -4
-3 -1 -16 -21 -28 -46 -18 -38 -26 -45 -50 -45 -25 0 -32 8 -62 70 -28 58 -37
69 -59 70 -14 0 -30 5 -35 10 -6 6 -85 12 -180 14 -93 3 -185 9 -204 15 -19 6
-43 8 -52 5 -28 -9 -158 -128 -158 -144 0 -12 -163 -18 -186 -8 -13 6 -25 26
-33 58 -11 44 -15 48 -49 54 -20 3 -67 6 -103 6 -73 0 -86 -9 -130 -88 -27
-49 -40 -54 -134 -50 -64 3 -70 5 -67 23 2 11 8 52 14 90 11 70 11 71 58 97
42 23 49 32 55 66 3 22 5 69 4 103 -2 46 9 118 39 257 54 245 84 349 127 440
l34 72 88 0 c117 0 189 19 335 86 190 86 265 100 363 65z"/>
</g>
</svg>
