<?xml version="1.0" standalone="no"?>
<!DOCTYPE svg PUBLIC "-//W3C//DTD SVG 20010904//EN"
 "http://www.w3.org/TR/2001/REC-SVG-20010904/DTD/svg10.dtd">
<svg version="1.0" xmlns="http://www.w3.org/2000/svg"
 width="573.000000pt" height="78.000000pt" viewBox="0 0 573.000000 78.000000"
 preserveAspectRatio="xMidYMid meet">

<g transform="translate(0.000000,78.000000) scale(0.100000,-0.100000)"
fill="#000000" stroke="none">
<path d="M4126 652 c-29 -3 -40 -8 -44 -25 -5 -20 -6 -20 -13 -1 -6 16 -8 15
-8 -8 -1 -15 4 -30 9 -33 6 -3 10 -29 10 -58 l0 -51 45 62 c38 53 50 62 76 62
80 0 91 -44 22 -88 -43 -27 -112 -60 -131 -62 -14 -1 -2 -151 18 -206 27 -77
44 -95 75 -80 28 13 31 23 11 52 -19 27 -59 161 -53 177 3 8 34 27 69 44 109
53 150 121 103 172 -19 23 -99 52 -130 48 -11 -1 -37 -3 -59 -5z"/>
<path d="M4641 600 c-9 -26 -14 -30 -35 -24 -21 5 -39 -8 -130 -100 -79 -79
-112 -106 -131 -106 -25 0 -29 -6 -25 -47 1 -12 -10 -39 -25 -60 l-26 -38 22
-17 c33 -28 45 -22 85 37 43 66 58 75 118 75 55 0 57 -9 21 -80 -14 -27 -25
-53 -25 -57 0 -5 14 -14 31 -22 26 -11 33 -11 44 0 26 27 145 369 145 417 0
18 -33 52 -51 52 -4 0 -12 -14 -18 -30z m-51 -173 c-21 -56 -22 -57 -61 -57
-25 0 -39 5 -39 13 0 6 26 39 57 72 66 67 76 61 43 -28z"/>
<path d="M994 557 c1 -30 -4 -65 -11 -78 -6 -13 -16 -42 -21 -64 -6 -22 -18
-65 -27 -95 -38 -128 -38 -133 5 -155 l28 -14 10 62 c19 115 42 202 56 213 10
7 15 35 17 95 l2 84 -29 3 c-30 3 -30 3 -30 -51z"/>
<path d="M4908 593 c-23 -27 -190 -280 -223 -340 -29 -51 -29 -52 -10 -73 33
-37 55 -22 103 70 44 82 99 170 173 273 l34 49 -24 19 c-29 23 -34 24 -53 2z"/>
<path d="M770 570 c0 -26 -3 -30 -29 -30 -24 0 -35 -10 -73 -67 -25 -38 -57
-92 -72 -120 -18 -36 -33 -53 -45 -53 -30 0 -41 -21 -27 -49 11 -19 10 -31 -1
-63 -16 -46 -13 -53 26 -66 36 -13 40 -8 66 71 20 63 29 71 91 81 50 7 56 -1
43 -65 -4 -24 -8 -50 -9 -56 0 -15 61 -44 72 -34 12 11 28 195 28 316 0 110
-1 117 -25 140 -32 33 -45 31 -45 -5z m-2 -171 l-3 -64 -42 -3 c-51 -4 -52 1
-17 71 50 98 67 97 62 -4z"/>
<path d="M5060 559 c0 -22 -26 -70 -89 -167 -103 -159 -111 -174 -111 -200 0
-20 36 -59 46 -49 3 3 36 58 72 123 37 65 73 120 81 122 12 4 13 -16 8 -123
-6 -114 -5 -129 11 -141 27 -21 37 -17 56 24 33 70 119 207 178 284 59 76 59
77 43 102 -10 14 -23 26 -30 26 -13 0 -111 -133 -139 -187 -9 -18 -21 -33 -26
-33 -6 0 -10 47 -10 115 0 125 -5 135 -64 135 -22 0 -26 -4 -26 -31z"/>
<path d="M260 551 c-54 -13 -90 -29 -90 -42 0 -6 7 -24 17 -39 15 -26 15 -32
-1 -87 -18 -59 -34 -121 -57 -226 -13 -55 -12 -60 6 -73 10 -8 31 -14 47 -14
23 0 28 4 28 25 0 22 12 80 30 144 11 42 24 34 58 -34 31 -63 105 -155 124
-155 5 0 20 8 32 17 l23 18 -32 40 c-38 48 -95 141 -95 156 0 6 27 36 59 67
63 60 80 97 65 140 -18 52 -125 83 -214 63z m146 -76 c8 -19 -7 -38 -70 -87
-60 -47 -75 -40 -56 27 7 26 19 53 27 61 20 19 92 19 99 -1z"/>
<path d="M5461 530 c-20 -9 -23 -15 -18 -44 4 -28 1 -38 -20 -57 -41 -39 -118
-140 -152 -200 -57 -101 -41 -122 88 -121 84 0 127 11 143 36 14 21 -6 27 -76
20 -89 -8 -97 0 -62 60 37 63 51 71 124 71 51 0 67 4 76 18 9 15 7 21 -8 33
-11 8 -32 14 -48 14 -39 0 -35 17 16 72 l43 47 67 -6 c62 -5 66 -5 66 14 0 11
-7 26 -14 33 -19 15 -194 23 -225 10z"/>
</g>
</svg>
